<svg width="51" height="51" viewBox="0 0 51 51" fill="none" xmlns="http://www.w3.org/2000/svg">
<g filter="url(#filter0_dd_3261_28864)">
<path d="M25.724 41.6083C16.0579 41.6083 8.22461 33.7798 8.22461 24.1196C8.22461 14.4594 16.0628 6.63086 25.724 6.63086C35.3852 6.63086 43.2234 14.4643 43.2234 24.1196C43.2234 33.7749 35.3901 41.6083 25.724 41.6083Z" fill="#FF3404"/>
<path opacity="0.6" d="M38.1247 11.7754C39.9331 14.5278 40.9909 17.8209 40.9909 21.3577C40.9909 31.0179 33.1527 38.8464 23.4915 38.8464C18.6463 38.8464 14.2592 36.8783 11.0908 33.6972C14.2154 38.4615 19.6017 41.6085 25.724 41.6085C35.3901 41.6085 43.2234 33.78 43.2234 24.1198C43.2234 19.3019 41.2785 14.9419 38.1247 11.7754Z" fill="#E95F00"/>
<path d="M42.3659 24.0169C42.3659 14.6587 34.791 7.08838 25.4271 7.08838C16.0632 7.08838 8.48828 14.6587 8.48828 24.0169C8.48828 33.3751 16.0632 40.9454 25.4271 40.9454C34.791 40.9454 42.3659 33.3751 42.3659 24.0169Z" stroke="#E5731F" stroke-width="0.106667" stroke-miterlimit="10"/>
<path d="M25.4274 40.21C16.473 40.21 9.22461 32.9661 9.22461 24.0171C9.22461 15.0682 16.473 7.82422 25.4274 7.82422C34.3818 7.82422 41.6302 15.0682 41.6302 24.0171C41.6302 32.9661 34.3818 40.21 25.4274 40.21Z" stroke="#E5731F" stroke-width="0.106667" stroke-miterlimit="10"/>
<path d="M40.8944 24.0174C40.8944 15.4727 33.9775 8.56006 25.4277 8.56006C16.8778 8.56006 9.96094 15.4727 9.96094 24.0174C9.96094 32.562 16.8778 39.4747 25.4277 39.4747C33.9775 39.4747 40.8944 32.562 40.8944 24.0174Z" stroke="#E5731F" stroke-width="0.106667" stroke-miterlimit="10"/>
<path d="M25.428 38.7393C17.2876 38.7393 10.6973 32.1579 10.6973 24.0176C10.6973 15.8773 17.2827 9.2959 25.428 9.2959C33.5732 9.2959 40.1586 15.8773 40.1586 24.0176C40.1586 32.153 33.5683 38.7393 25.428 38.7393Z" stroke="#E5731F" stroke-width="0.106667" stroke-miterlimit="10"/>
<path d="M39.4209 24.0174C39.4209 16.2863 33.1621 10.0312 25.4263 10.0312C17.6905 10.0312 11.4316 16.2863 11.4316 24.0174C11.4316 31.7485 17.6905 38.0035 25.4263 38.0035C33.1621 38.0035 39.4209 31.7485 39.4209 24.0174Z" stroke="#E5731F" stroke-width="0.106667" stroke-miterlimit="10"/>
<path d="M25.4266 37.2671C18.1002 37.2671 12.168 31.3434 12.168 24.0166C12.168 16.6899 18.0953 10.7661 25.4266 10.7661C32.7578 10.7661 38.6852 16.6899 38.6852 24.0166C38.6852 31.3434 32.7529 37.2671 25.4266 37.2671Z" stroke="#E5731F" stroke-width="0.106667" stroke-miterlimit="10"/>
<path d="M37.9445 24.0169C37.9445 17.0993 32.3437 11.502 25.422 11.502C18.5002 11.502 12.9043 17.0993 12.9043 24.0169C12.9043 30.9344 18.5051 36.5269 25.4268 36.5269C32.3486 36.5269 37.9445 30.9344 37.9445 24.0169Z" stroke="#E5731F" stroke-width="0.106667" stroke-miterlimit="10"/>
<path d="M25.4281 35.7921C18.9158 35.7921 13.6465 30.526 13.6465 24.0176C13.6465 17.5093 18.9158 12.2432 25.4281 12.2432C31.9404 12.2432 37.2097 17.5093 37.2097 24.0176C37.2097 30.526 31.9404 35.7921 25.4281 35.7921Z" stroke="#E5731F" stroke-width="0.106667" stroke-miterlimit="10"/>
<path d="M36.472 24.0174C36.472 17.9134 31.5293 12.9785 25.4264 12.9785C19.3236 12.9785 14.3809 17.9134 14.3809 24.0174C14.3809 30.1214 19.3236 35.0562 25.4264 35.0562C31.5293 35.0562 36.472 30.1214 36.472 24.0174Z" stroke="#E5731F" stroke-width="0.106667" stroke-miterlimit="10"/>
<path d="M25.4267 34.3199C19.7284 34.3199 15.1172 29.7114 15.1172 24.0166C15.1172 18.3218 19.7284 13.7134 25.4267 13.7134C31.125 13.7134 35.7362 18.3218 35.7362 24.0166C35.7362 29.7114 31.125 34.3199 25.4267 34.3199Z" stroke="#E5731F" stroke-width="0.106667" stroke-miterlimit="10"/>
<path d="M35.0005 24.0169C35.0005 18.7264 30.7207 14.4492 25.427 14.4492C20.1333 14.4492 15.8535 18.7313 15.8535 24.0169C15.8535 29.3025 20.1382 33.5845 25.427 33.5845C30.7158 33.5845 35.0005 29.3073 35.0005 24.0169Z" stroke="#E5731F" stroke-width="0.106667" stroke-miterlimit="10"/>
<path d="M25.4273 32.8492C20.543 32.8492 16.5898 28.8984 16.5898 24.0171C16.5898 19.1359 20.543 15.1851 25.4273 15.1851C30.3115 15.1851 34.2647 19.1359 34.2647 24.0171C34.2647 28.8984 30.3115 32.8492 25.4273 32.8492Z" stroke="#E5731F" stroke-width="0.106667" stroke-miterlimit="10"/>
<path d="M33.529 24.0174C33.529 19.5404 29.9072 15.9209 25.4276 15.9209C20.9479 15.9209 17.3262 19.5404 17.3262 24.0174C17.3262 28.4943 20.9479 32.1138 25.4276 32.1138C29.9072 32.1138 33.529 28.4943 33.529 24.0174Z" stroke="#E5731F" stroke-width="0.106667" stroke-miterlimit="10"/>
<path d="M25.4259 31.378C21.3557 31.378 18.0605 28.0848 18.0605 24.0171C18.0605 19.9494 21.3557 16.6562 25.4259 16.6562C29.4961 16.6562 32.7912 19.9494 32.7912 24.0171C32.7912 28.0848 29.4961 31.378 25.4259 31.378Z" stroke="#E5731F" stroke-width="0.106667" stroke-miterlimit="10"/>
<path d="M32.0574 24.0169C32.0574 20.3535 29.0937 17.3916 25.4281 17.3916C21.7625 17.3916 18.7988 20.3535 18.7988 24.0169C18.7988 27.6802 21.7625 30.6421 25.4281 30.6421C29.0937 30.6421 32.0574 27.6802 32.0574 24.0169Z" stroke="#E5731F" stroke-width="0.106667" stroke-miterlimit="10"/>
<path d="M25.4265 29.9073C22.1703 29.9073 19.5332 27.2718 19.5332 24.0176C19.5332 20.7634 22.1703 18.1279 25.4265 18.1279C28.6826 18.1279 31.3197 20.7634 31.3197 24.0176C31.3197 27.2718 28.6826 29.9073 25.4265 29.9073Z" stroke="#E5731F" stroke-width="0.106667" stroke-miterlimit="10"/>
<path d="M30.5839 24.0173C30.5839 21.1675 28.2783 18.8633 25.4267 18.8633C22.5752 18.8633 20.2695 21.1675 20.2695 24.0173C20.2695 26.8672 22.5752 29.1714 25.4267 29.1714C28.2783 29.1714 30.5839 26.8672 30.5839 24.0173Z" stroke="#E5731F" stroke-width="0.106667" stroke-miterlimit="10"/>
<path d="M25.426 28.4356C22.9839 28.4356 21.0098 26.4626 21.0098 24.022C21.0098 21.5814 22.9839 19.6084 25.426 19.6084C27.8682 19.6084 29.8472 21.5814 29.8472 24.022C29.8472 26.4626 27.8682 28.4356 25.426 28.4356Z" stroke="#E5731F" stroke-width="0.106667" stroke-miterlimit="10"/>
<path d="M29.1085 24.0169C29.1085 21.9806 27.4609 20.3389 25.4283 20.3389C23.3907 20.3389 21.748 21.9854 21.748 24.0169C21.748 26.0532 23.3956 27.6949 25.4283 27.6949C27.4658 27.6949 29.1085 26.0532 29.1085 24.0169Z" stroke="#E5731F" stroke-width="0.106667" stroke-miterlimit="10"/>
<path d="M25.4266 26.96C23.7985 26.96 22.4824 25.6447 22.4824 24.0176C22.4824 22.3905 23.7985 21.0752 25.4266 21.0752C27.0547 21.0752 28.3708 22.3905 28.3708 24.0176C28.3708 25.6447 27.0547 26.96 25.4266 26.96Z" stroke="#E5731F" stroke-width="0.106667" stroke-miterlimit="10"/>
<path d="M27.635 24.0173C27.635 22.7995 26.6455 21.8105 25.4269 21.8105C24.2083 21.8105 23.2188 22.7995 23.2188 24.0173C23.2188 25.2401 24.2083 26.2241 25.4269 26.2241C26.6504 26.2241 27.635 25.2352 27.635 24.0173Z" stroke="#E5731F" stroke-width="0.106667" stroke-miterlimit="10"/>
<path d="M25.4272 25.4883C24.6131 25.4883 23.9551 24.8306 23.9551 24.0171C23.9551 23.2036 24.6131 22.5459 25.4272 22.5459C26.2412 22.5459 26.8993 23.2036 26.8993 24.0171C26.8993 24.8306 26.2412 25.4883 25.4272 25.4883Z" stroke="#E5731F" stroke-width="0.106667" stroke-miterlimit="10"/>
<path d="M26.1626 24.0168C26.1626 23.6076 25.8313 23.2812 25.427 23.2812C25.0178 23.2812 24.6914 23.6125 24.6914 24.0168C24.6914 24.4261 25.0227 24.7524 25.427 24.7524C25.8362 24.7524 26.1626 24.4261 26.1626 24.0168Z" stroke="#E5731F" stroke-width="0.106667" stroke-miterlimit="10"/>
<path d="M12.7108 10.6299L17.2538 15.1653C17.5999 15.5111 17.5999 16.0714 17.2538 16.4172C16.9077 16.7631 16.3471 16.7631 16.0059 16.4172L11.4629 11.8819L12.7108 10.6299Z" fill="#FFAE00"/>
<path d="M38.4081 10.6299L33.865 15.1653C33.5189 15.5111 33.5189 16.0714 33.865 16.4172C34.2111 16.7631 34.7717 16.7631 35.1178 16.4172L39.6608 11.8819L38.4081 10.6299Z" fill="#FFAE00"/>
<path d="M38.2919 37.3895L33.7537 32.8542C33.4076 32.5083 33.4076 31.9481 33.7537 31.6022C34.0998 31.2563 34.6604 31.2563 35.0064 31.6022L39.5495 36.1376L38.2919 37.3895Z" fill="#FFAE00"/>
<path d="M12.5936 37.3895L17.1317 32.8542C17.4778 32.5083 17.4778 31.9481 17.1317 31.6022C16.7856 31.2563 16.2251 31.2563 15.8838 31.6022L11.3457 36.1376L12.5936 37.3895Z" fill="#FFAE00"/>
<path d="M25.5 4.01953C14.4544 4.01953 5.5 12.9685 5.5 24.0074C5.5 35.0462 14.4544 44 25.5 44C36.5456 44 45.5 35.0511 45.5 24.0074C45.5 12.9685 36.5456 4.01953 25.5 4.01953ZM25.5 40.6046C16.3311 40.6046 8.89264 33.1755 8.89264 24.0074C8.89264 14.8392 16.3262 7.41498 25.5 7.41498C34.6738 7.41498 42.1074 14.844 42.1074 24.0122C42.1074 33.1804 34.6689 40.6046 25.5 40.6046Z" fill="url(#paint0_linear_3261_28864)"/>
<path d="M26.3807 5.29541V9.43133C26.3807 9.91848 25.9861 10.3131 25.4989 10.3131C25.0118 10.3131 24.6172 9.91848 24.6172 9.43133V5.29541H26.3807Z" fill="#FFAE00"/>
<path d="M24.6172 42.7237V38.5878C24.6172 38.1006 25.0118 37.7012 25.4989 37.7012C25.9861 37.7012 26.3855 38.0958 26.3807 38.5878V42.7237H24.6172Z" fill="#FFAE00"/>
<path d="M6.77734 23.1255H10.9158C11.4032 23.1255 11.7981 23.5201 11.7981 24.0072C11.7981 24.4944 11.4032 24.889 10.9158 24.889H6.77734C6.77734 24.8938 6.77734 23.1255 6.77734 23.1255Z" fill="#FFAE00"/>
<path d="M12.3817 24.8984V20.933C12.3817 20.4459 11.9871 20.0513 11.4999 20.0513C11.0128 20.0513 10.6182 20.4459 10.6182 20.933V23.1155V27.0809C10.6182 27.568 11.0128 27.9626 11.4999 27.9626C11.9871 27.9626 12.3817 27.568 12.3817 27.0809V24.8984Z" fill="#FFAE00"/>
<path d="M44.2229 24.8934H40.0844C39.597 24.8934 39.1973 24.4988 39.1973 24.0116C39.1973 23.5245 39.5921 23.1299 40.0844 23.1299H44.2229V24.8934Z" fill="#FFAE00"/>
<path d="M38.6172 23.1155V27.0809C38.6172 27.568 39.0118 27.9626 39.4989 27.9626C39.9861 27.9626 40.3855 27.568 40.3855 27.0809V24.8984V20.933C40.3855 20.4459 39.991 20.0513 39.5038 20.0513C39.0167 20.0513 38.6221 20.4459 38.6221 20.933L38.6172 23.1155Z" fill="#FFAE00"/>
<g opacity="0.6">
<path d="M32.7631 25.9414C33.2213 26.5844 33.4553 27.2859 33.4553 28.0361C33.4553 29.3563 32.9678 30.4086 31.9929 31.2026C31.018 31.9967 29.6288 32.3913 27.8204 32.3913H18.7148V30.1601L20.5525 29.8435V20.0615L18.7148 19.7448V17.5137H27.8204C28.8489 17.5137 29.7507 17.6793 30.5355 18.0154C31.3154 18.3467 31.9149 18.7998 32.3293 19.3648C32.7436 19.9299 32.9483 20.5486 32.9483 21.216C32.9483 22.0393 32.7485 22.7311 32.3488 23.301C31.9491 23.8661 31.4665 24.2851 30.901 24.553C31.681 24.8307 32.3049 25.2984 32.7631 25.9414ZM24.9249 20.4902V23.15H26.9966C27.4402 23.15 27.796 23.0428 28.0641 22.8188C28.3322 22.5995 28.4687 22.2634 28.4687 21.8103C28.4687 21.3719 28.3322 21.0406 28.0641 20.8214C27.796 20.6022 27.4402 20.4902 26.9966 20.4902H24.9249ZM26.9235 29.4148C27.4743 29.4148 27.9179 29.2784 28.2445 29.0104C28.5759 28.7425 28.7368 28.3236 28.7368 27.7585C28.7368 27.208 28.571 26.7939 28.2445 26.526C27.913 26.258 27.4743 26.1216 26.9235 26.1216H24.9249V29.4148H26.9235Z" fill="#A04100"/>
</g>
<path d="M32.3481 24.7137C32.7868 25.381 33.0062 26.102 33.0062 26.8815C33.0062 28.2455 32.5382 29.3367 31.6072 30.16C30.6762 30.9833 29.3454 31.3925 27.6101 31.3925H18.8945V29.0834L20.6542 28.7521V18.6291L18.8945 18.2979V15.9888H27.6101C28.5947 15.9888 29.4575 16.1593 30.2082 16.5051C30.9589 16.851 31.5292 17.3138 31.924 17.9033C32.3189 18.4879 32.5187 19.126 32.5187 19.8178C32.5187 20.6703 32.3286 21.3864 31.9484 21.9759C31.5682 22.5604 31.1051 22.994 30.5592 23.2717C31.3098 23.564 31.9045 24.0463 32.3481 24.7137ZM24.8414 19.0724V21.8248H26.8204C27.2445 21.8248 27.5857 21.7128 27.8441 21.4838C28.1024 21.2549 28.2292 20.909 28.2292 20.4365C28.2292 19.9834 28.1024 19.6424 27.8441 19.4134C27.5857 19.1845 27.2445 19.0724 26.8204 19.0724H24.8414ZM26.7571 28.3088C27.2835 28.3088 27.7076 28.1676 28.0244 27.8899C28.3413 27.6122 28.4973 27.1786 28.4973 26.5941C28.4973 26.0241 28.3413 25.5954 28.0244 25.3177C27.7076 25.04 27.2884 24.8988 26.7571 24.8988H24.8414V28.3088H26.7571Z" fill="#FFAE00"/>
<path opacity="0.42" d="M25.4998 4C22.6093 4 19.8649 4.65278 17.3984 5.81708C17.3936 5.99245 17.3936 6.16782 17.3936 6.3432C17.3887 20.5047 29.3653 32.4204 43.2429 32.4204C43.4135 32.4204 43.4623 32.4253 43.6329 32.4204C44.7735 29.9018 45.4852 26.75 45.4852 23.7978C45.4852 12.9051 36.1701 4 25.4998 4Z" fill="url(#paint1_linear_3261_28864)"/>
</g>
<defs>
<filter id="filter0_dd_3261_28864" x="0.166667" y="-1.19209e-07" width="50.6667" height="50.6667" filterUnits="userSpaceOnUse" color-interpolation-filters="sRGB">
<feFlood flood-opacity="0" result="BackgroundImageFix"/>
<feColorMatrix in="SourceAlpha" type="matrix" values="0 0 0 0 0 0 0 0 0 0 0 0 0 0 0 0 0 0 127 0" result="hardAlpha"/>
<feOffset dy="1.33333"/>
<feGaussianBlur stdDeviation="2.66667"/>
<feColorMatrix type="matrix" values="0 0 0 0 0 0 0 0 0 0 0 0 0 0 0 0 0 0 0.12 0"/>
<feBlend mode="normal" in2="BackgroundImageFix" result="effect1_dropShadow_3261_28864"/>
<feColorMatrix in="SourceAlpha" type="matrix" values="0 0 0 0 0 0 0 0 0 0 0 0 0 0 0 0 0 0 127 0" result="hardAlpha"/>
<feOffset/>
<feGaussianBlur stdDeviation="0.666667"/>
<feColorMatrix type="matrix" values="0 0 0 0 0 0 0 0 0 0 0 0 0 0 0 0 0 0 0.039 0"/>
<feBlend mode="normal" in2="effect1_dropShadow_3261_28864" result="effect2_dropShadow_3261_28864"/>
<feBlend mode="normal" in="SourceGraphic" in2="effect2_dropShadow_3261_28864" result="shape"/>
</filter>
<linearGradient id="paint0_linear_3261_28864" x1="5.49756" y1="24.0093" x2="45.501" y2="24.0093" gradientUnits="userSpaceOnUse">
<stop offset="5.5409e-07" stop-color="#FFAE00"/>
<stop offset="1" stop-color="#FFAE00"/>
</linearGradient>
<linearGradient id="paint1_linear_3261_28864" x1="25.0231" y1="24.6053" x2="39.6504" y2="9.96905" gradientUnits="userSpaceOnUse">
<stop offset="1.38522e-07" stop-color="#FFAE00"/>
<stop offset="0.3531" stop-color="#FFAE00"/>
<stop offset="1" stop-color="#C1880A"/>
</linearGradient>
</defs>
</svg>
