<svg width="170" height="50" viewBox="0 0 170 50" fill="none" xmlns="http://www.w3.org/2000/svg">
<path d="M45.1933 19.9459C49.3526 24.2329 49.9461 29.4069 50 31.8076H49.9902C50.0245 33.3363 49.9657 39.6174 44.9627 44.7128C39.8126 49.9652 33.2892 50.0092 32.1513 49.9994H0V17.4423C0.0147289 15.8696 0.255062 10.7153 4.11517 6.14879C9.23583 0.102871 16.5735 0 17.7702 0C19.2025 0 24.4997 0.0980859 29.2133 4.13516C33.9808 8.22127 34.8784 13.5471 35.0647 14.8846C36.5607 15.0856 41.2792 15.9088 45.1933 19.9459Z" fill="#BF2E2B"/>
<path d="M105.193 19.9459C109.353 24.2329 109.946 29.4069 110 31.8076H109.99C110.025 33.3363 109.966 39.6174 104.963 44.7128C99.8126 49.9652 93.2892 50.0092 92.1513 49.9994H60V17.4423C60.0147 15.8696 60.2551 10.7153 64.1152 6.14879C69.2358 0.102871 76.5735 0 77.7702 0C79.2025 0 84.4997 0.0980859 89.2133 4.13516C93.9808 8.22127 94.8784 13.5471 95.0647 14.8846C96.5607 15.0856 101.279 15.9088 105.193 19.9459Z" fill="#BF2E2B"/>
<path d="M165.193 19.9459C169.353 24.2329 169.946 29.4069 170 31.8076H169.99C170.025 33.3363 169.966 39.6174 164.963 44.7128C159.813 49.9652 153.289 50.0092 152.151 49.9994H120V17.4423C120.015 15.8696 120.255 10.7153 124.115 6.14879C129.236 0.102871 136.573 0 137.77 0C139.202 0 144.5 0.0980859 149.213 4.13516C153.981 8.22127 154.878 13.5471 155.065 14.8846C156.561 15.0856 161.279 15.9088 165.193 19.9459Z" fill="#BF2E2B"/>
</svg>
