<svg width="187" height="42" viewBox="0 0 187 42" fill="none" xmlns="http://www.w3.org/2000/svg">
<g clip-path="url(#clip0_2698_1634)">
<path fill-rule="evenodd" clip-rule="evenodd" d="M28.5751 13.4234C32.2835 13.6539 35.7566 15.3184 38.2593 18.0646C40.7619 20.8108 42.0977 24.4231 41.9838 28.1369C41.8699 31.8507 40.3153 35.3744 37.649 37.962C34.9828 40.5497 31.4142 41.9983 27.6987 42.001H0V14.3024C0.00277375 10.5872 1.45119 7.01891 4.03863 4.35288C6.62608 1.68685 10.1494 0.132347 13.8629 0.0184483C17.5763 -0.0954508 21.1883 1.24019 23.9343 3.74264C26.6803 6.24508 28.3447 9.71789 28.5751 13.4259V13.4234Z" fill="#EE3737"/>
<path d="M27.7009 14.3036C27.7009 12.5442 27.3544 10.8021 26.6811 9.17664C26.0078 7.5512 25.021 6.07429 23.7769 4.83024C22.5329 3.58618 21.056 2.59934 19.4305 1.92606C17.8051 1.25278 16.0629 0.90625 14.3036 0.90625C12.5442 0.90625 10.8021 1.25278 9.17664 1.92606C7.5512 2.59934 6.07429 3.58618 4.83024 4.83024C3.58618 6.07429 2.59934 7.5512 1.92606 9.17664C1.25278 10.8021 0.90625 12.5442 0.90625 14.3036V41.0982H27.7009C31.2541 41.0982 34.6618 39.6867 37.1742 37.1742C39.6867 34.6618 41.0982 31.2541 41.0982 27.7009C41.0982 24.1477 39.6867 20.7401 37.1742 18.2276C34.6618 15.7151 31.2541 14.3036 27.7009 14.3036Z" fill="#FEFEFE"/>
<path d="M25.3299 16.668H3.26562V38.7322H25.3299V16.668Z" fill="#2A4D34"/>
<path d="M14.3028 19.6602C12.7133 19.6602 11.1595 20.1315 9.83783 21.0145C8.51619 21.8975 7.48605 23.1526 6.87766 24.621C6.26927 26.0895 6.10996 27.7054 6.41988 29.2643C6.72979 30.8233 7.495 32.2554 8.61877 33.3795C9.74253 34.5037 11.1744 35.2693 12.7333 35.5797C14.2922 35.8901 15.9081 35.7313 17.3767 35.1234C18.8454 34.5154 20.1008 33.4857 20.9842 32.1643C21.8676 30.843 22.3394 29.2893 22.3399 27.6998C22.3401 26.6442 22.1323 25.5989 21.7285 24.6235C21.3247 23.6482 20.7327 22.762 19.9864 22.0154C19.2401 21.2689 18.354 20.6766 17.3788 20.2725C16.4036 19.8684 15.3584 19.6603 14.3028 19.6602Z" fill="#FEFEFE"/>
<path d="M27.6953 16.6698V38.7341C29.154 38.7497 30.6014 38.4758 31.9536 37.9283C33.3058 37.3808 34.5359 36.5706 35.573 35.5446C36.61 34.5186 37.4332 33.2971 37.9951 31.9508C38.5569 30.6045 38.8462 29.1602 38.8462 27.7014C38.8462 26.2425 38.5569 24.7982 37.9951 23.4519C37.4332 22.1057 36.61 20.8842 35.573 19.8581C34.5359 18.8321 33.3058 18.0219 31.9536 17.4744C30.6014 16.9269 29.154 16.6531 27.6953 16.6686V16.6698Z" fill="#EE3737"/>
<path d="M25.3299 14.3017C25.3299 11.3758 24.1676 8.5697 22.0987 6.50077C20.0297 4.43184 17.2237 3.26953 14.2978 3.26953C11.3719 3.26953 8.56579 4.43184 6.49686 6.50077C4.42794 8.5697 3.26563 11.3758 3.26562 14.3017H25.3299Z" fill="#EE3737"/>
<path d="M14.3035 33.3727C17.4354 33.3727 19.9742 30.8338 19.9742 27.702C19.9742 24.5701 17.4354 22.0312 14.3035 22.0312C11.1717 22.0312 8.63281 24.5701 8.63281 27.702C8.63281 30.8338 11.1717 33.3727 14.3035 33.3727Z" fill="#EE3737"/>
<path d="M164.544 20.4289V13.6125C164.544 12.0424 164.013 10.8943 162.465 10.8943C160.918 10.8943 160.337 11.9072 160.337 13.4523V20.4264H155.704V13.6063C155.704 12.0362 155.203 10.888 153.598 10.888C151.993 10.888 151.492 11.9798 151.492 13.6063V20.4264H146.859V7.10919H151.492V9.42555H151.705C151.705 9.42555 152.504 6.84375 155.699 6.84375C159.135 6.84375 159.831 9.42555 159.831 9.42555H160.044C160.044 9.42555 160.788 6.84375 164.01 6.84375C167.233 6.84375 169.175 8.59667 169.175 12.542V20.4301H164.543H164.555L164.544 20.4289Z" fill="#E73C20"/>
<path d="M57.9702 23.1158H49.7891V41.7543H54.8475V37.2268H57.9702C63.8813 37.2268 66.3053 34.7226 66.3053 30.17C66.3053 25.6175 63.8775 23.1133 57.9702 23.1133V23.1158ZM60.9752 30.1776C60.9752 32.092 59.9886 33.0248 57.9702 33.0248H54.8475V27.324H57.9702C59.9923 27.324 60.9752 28.2556 60.9752 30.1725V30.1776Z" fill="#E73C20"/>
<path d="M120.522 33.0006C120.522 29.645 117.992 28.1562 113.651 28.1562C109.31 28.1562 106.569 29.6763 106.569 32.8428H111.312C111.312 31.9914 112.031 31.3516 113.604 31.3516C115.439 31.3516 115.896 32.2055 115.896 33.0043V34.8386C115.896 34.8386 114.992 33.852 111.795 33.852C108.599 33.852 105.883 34.9977 105.883 37.9288C105.883 40.7497 108.358 42.0018 111.288 42.0018C115.336 42.0018 116.162 40.0573 116.162 40.006H116.367L116.788 41.7589H120.527V33.0056L120.522 33.0006ZM113.2 38.8065C111.681 38.8065 110.617 38.5661 110.617 37.7159C110.617 36.8658 111.681 36.6241 113.2 36.6241C114.719 36.6241 115.782 36.8633 115.782 37.7159C115.782 38.5686 114.718 38.8065 113.2 38.8065Z" fill="#E73C20"/>
<path d="M72.664 28.4336H68.0312V41.752H72.664V28.4336Z" fill="#E73C20"/>
<path d="M91.3115 32.2201V28.4375H104.416V32.2201L97.304 37.8908V37.9721H104.684V41.7547H90.9922V37.9721L98.104 32.3002V32.2201H91.3115Z" fill="#E73C20"/>
<path d="M75.568 32.2201V28.4375H88.6736V32.2201L81.5618 37.8908V37.9721H88.9391V41.7547H75.25V37.9721L82.3619 32.3002V32.2201H75.568Z" fill="#E73C20"/>
<path d="M62.6805 10.7365V10.4948C62.6805 10.4948 65.5603 9.77612 65.5603 6.5808C65.5603 3.62337 63.7486 1.78906 59.4614 1.78906H49.7891V20.4289H59.6956C64.436 20.4289 66.433 18.8325 66.433 15.2352C66.433 11.3538 62.6768 10.7365 62.6768 10.7365H62.6805ZM54.85 5.64925H58.2306C59.7206 5.64925 60.234 6.44933 60.234 7.43347C60.234 8.41761 59.7269 9.21769 58.2306 9.21769H54.85V5.64925ZM58.8191 16.5674H54.8525V12.6271H58.8191C60.4468 12.6271 61.1117 13.4823 61.1117 14.5979C61.1117 15.7135 60.4443 16.5674 58.8191 16.5674Z" fill="#E73C20"/>
<path d="M178.49 6.84375C173.937 6.84375 170.688 9.18766 170.688 13.7678C170.688 18.3479 173.943 20.6918 178.49 20.6918C183.038 20.6918 186.292 18.3467 186.292 13.7678C186.292 9.18891 183.051 6.84375 178.49 6.84375ZM178.49 16.6964C176.652 16.6964 175.429 15.5257 175.429 13.7665C175.429 12.0074 176.652 10.8367 178.49 10.8367C180.329 10.8367 181.552 12.0074 181.552 13.7665C181.552 15.5257 180.326 16.6977 178.49 16.6977V16.6964Z" fill="#E73C20"/>
<path d="M90.1171 1.78906H85.4844V20.4289H90.1171V1.78906Z" fill="#E73C20"/>
<path d="M97.634 1.78906H93V20.4289H97.634V1.78906Z" fill="#E73C20"/>
<path d="M105.147 7.11328H100.516V20.4317H105.147V7.11328Z" fill="#E73C20"/>
<path d="M121.022 11.2948H116.28C116.28 10.7088 116.28 9.99009 114.202 9.99009C112.711 9.99009 112.231 10.3895 112.231 10.9479C112.231 12.9513 121.713 10.3081 121.713 16.3545C121.713 19.3895 119.084 20.6954 114.442 20.6954C109.801 20.6954 107.227 19.4947 107.227 16.1679V15.7409H111.967V16.1679C111.967 17.1796 112.659 17.5452 114.442 17.5452C116.335 17.5452 116.973 17.1458 116.973 16.4271C116.973 14.1095 107.492 16.958 107.492 10.9417C107.492 8.33108 109.939 6.83984 114.229 6.83984C118.52 6.83984 121.021 8.17206 121.021 11.2885L121.022 11.2948Z" fill="#E73C20"/>
<path d="M136.803 11.2948H132.063C132.063 10.71 132.063 9.99009 129.984 9.99009C128.492 9.99009 128.014 10.3895 128.014 10.9479C128.014 12.9513 137.496 10.3081 137.496 16.3545C137.496 19.3895 134.86 20.6954 130.225 20.6954C125.59 20.6954 123.008 19.4947 123.008 16.1679V15.7409H127.749V16.1679C127.749 17.1796 128.441 17.5452 130.225 17.5452C132.115 17.5452 132.755 17.1458 132.755 16.4258C132.755 14.1095 123.273 16.958 123.273 10.9417C123.273 8.33108 125.72 6.83984 130.012 6.83984C134.304 6.83984 136.803 8.17081 136.803 11.2885V11.2948Z" fill="#E73C20"/>
<path d="M143.975 7.11328H139.344V20.4317H143.975V7.11328Z" fill="#E73C20"/>
<path d="M75.708 6.84766C71.1554 6.84766 67.9062 9.16402 67.9062 13.7704C67.9062 18.3769 71.1554 20.6945 75.7356 20.6945C82.6346 20.6945 83.1654 16.1419 83.1654 16.1419H78.2109C78.2109 16.1419 77.65 17.5017 75.7356 17.5017C73.607 17.5017 72.7806 16.2784 72.7531 14.6782H83.4058C83.4515 14.3793 83.4779 14.0778 83.4847 13.7755C83.4847 9.19407 80.2606 6.84766 75.708 6.84766ZM72.862 12.3068C72.862 11.2688 73.8224 10.0442 75.7105 10.0442C77.5987 10.0442 78.4814 11.3226 78.4814 12.3068H72.862Z" fill="#E73C20"/>
<path d="M100.352 3.51506C100.352 2.26297 101.309 1.51172 102.829 1.51172C104.349 1.51172 105.306 2.26297 105.306 3.51506C105.306 4.76714 104.348 5.5184 102.829 5.5184C101.311 5.5184 100.352 4.7684 100.352 3.51506Z" fill="#E73C20"/>
<path d="M139.188 3.51506C139.188 2.26297 140.145 1.51172 141.663 1.51172C143.18 1.51172 144.14 2.26297 144.14 3.51506C144.14 4.76714 143.182 5.5184 141.663 5.5184C140.144 5.5184 139.188 4.7684 139.188 3.51506Z" fill="#E73C20"/>
<path d="M67.8594 24.8393C67.8594 23.5872 68.8185 22.8359 70.336 22.8359C71.8535 22.8359 72.8126 23.5872 72.8126 24.8393C72.8126 26.0914 71.8535 26.8426 70.336 26.8426C68.8185 26.8426 67.8594 26.0926 67.8594 24.8393Z" fill="#E73C20"/>
</g>
<defs>
<clipPath id="clip0_2698_1634">
<rect width="186.297" height="42" fill="white"/>
</clipPath>
</defs>
</svg>
