<svg width="12" height="12" viewBox="0 0 12 12" fill="none" xmlns="http://www.w3.org/2000/svg">
<path fill-rule="evenodd" clip-rule="evenodd" d="M6 12C9.3138 12 12 9.3144 12 6C12 2.6868 9.3138 0 6 0C2.6862 0 0 2.6868 0 6C0 9.3144 2.6862 12 6 12ZM7.91445 8.22549C7.98705 8.26809 8.06626 8.28849 8.14486 8.28849C8.29786 8.28849 8.44726 8.20989 8.53186 8.06889C8.65906 7.85529 8.58885 7.57929 8.37586 7.45149L6.23985 6.17769V3.40509C6.23985 3.15669 6.03825 2.95509 5.78986 2.95509C5.54145 2.95509 5.33985 3.15669 5.33985 3.40509V6.43329C5.33985 6.59169 5.42325 6.73869 5.55885 6.82029L7.91445 8.22549Z" fill="#969696"/>
</svg>
